<?xml version="1.0" encoding="utf-8"?>
<!-- Generator: Adobe Illustrator 27.4.0, SVG Export Plug-In . SVG Version: 6.00 Build 0)  -->
<svg version="1.1" id="Layer_1" xmlns="http://www.w3.org/2000/svg" xmlns:xlink="http://www.w3.org/1999/xlink" x="0px" y="0px"
	 viewBox="0 0 1125 2436" style="enable-background:new 0 0 1125 2436;" xml:space="preserve">
<style type="text/css">
	.st0{stroke:#000000;stroke-width:11;stroke-miterlimit:10;}
	.st1{fill:none;stroke:#000000;stroke-width:11;stroke-miterlimit:10;}
</style>
<line class="st0" x1="446.5" y1="1" x2="454.5" y2="2437"/>
<line class="st0" x1="563.5" y1="1" x2="571.5" y2="2437"/>
<line class="st1" x1="450.5" y1="207.5" x2="570.5" y2="215.5"/>
<line class="st1" x1="448" y1="323.5" x2="563" y2="323.5"/>
<line class="st1" x1="450.5" y1="429.5" x2="567.5" y2="429.5"/>
<line class="st1" x1="447.5" y1="525.5" x2="562.5" y2="521.5"/>
<line class="st1" x1="450.5" y1="610.5" x2="562.5" y2="610.5"/>
<line class="st1" x1="447.5" y1="702.5" x2="562.5" y2="702.5"/>
<line class="st1" x1="450.5" y1="771.5" x2="567.5" y2="771.5"/>
<line class="st1" x1="447.5" y1="844.5" x2="562.5" y2="856.5"/>
<line class="st1" x1="450.5" y1="925.5" x2="562.5" y2="933.5"/>
<line class="st1" x1="447.5" y1="1006.5" x2="567.5" y2="1025.5"/>
<line class="st1" x1="444.5" y1="1117.5" x2="564.5" y2="1121.5"/>
<line class="st1" x1="450.5" y1="1325.5" x2="562.5" y2="1325.5"/>
<line class="st1" x1="450.5" y1="1219.5" x2="567.5" y2="1237.5"/>
<line class="st1" x1="447.5" y1="1417.5" x2="562.5" y2="1429.5"/>
<line class="st1" x1="447.5" y1="1521.5" x2="562.5" y2="1525.5"/>
<line class="st1" x1="447.5" y1="1629.5" x2="562.5" y2="1629.5"/>
<line class="st1" x1="452.5" y1="1714.5" x2="567.5" y2="1729.5"/>
<line class="st1" x1="451.5" y1="1862.5" x2="566.5" y2="1866.5"/>
<line class="st1" x1="452" y1="2000.5" x2="569" y2="2000.5"/>
<line class="st1" x1="445.5" y1="2090.5" x2="568.5" y2="2094.5"/>
<line class="st1" x1="454" y1="2167.5" x2="571" y2="2167.5"/>
<line class="st1" x1="456.5" y1="2249.5" x2="568.5" y2="2253.5"/>
</svg>
